<svg aria-hidden="true" style="position: absolute; width: 0; height: 0; overflow: hidden;" version="1.1"
    xmlns="http://www.w3.org/2000/svg" xmlns:xlink="http://www.w3.org/1999/xlink">
    <defs>
        <symbol id="icon-logo" viewBox="0 0 31 32">
            <path
                d="M7.095 3.939c-0.151-0.151-0.395-0.151-0.546 0l-2.008 2.008-2.008-2.008c-0.151-0.151-0.395-0.151-0.546 0s-0.151 0.395 0 0.546l2.008 2.008-2.008 2.008c-0.151 0.151-0.151 0.395 0 0.546 0.075 0.075 0.174 0.113 0.273 0.113s0.198-0.038 0.273-0.113l2.008-2.008 2.008 2.008c0.075 0.075 0.174 0.113 0.273 0.113s0.198-0.038 0.273-0.113c0.151-0.151 0.151-0.395 0-0.546l-2.008-2.008 2.008-2.008c0.151-0.151 0.151-0.395 0-0.546z">
            </path>
            <path
                d="M7.095 11.519c-0.151-0.151-0.395-0.151-0.546 0l-2.008 2.008-2.008-2.008c-0.151-0.151-0.395-0.151-0.546 0s-0.151 0.395 0 0.546l2.008 2.008-2.008 2.008c-0.151 0.151-0.151 0.395 0 0.546 0.075 0.075 0.174 0.113 0.273 0.113s0.198-0.038 0.273-0.113l2.008-2.008 2.008 2.008c0.075 0.075 0.174 0.113 0.273 0.113s0.198-0.038 0.273-0.113c0.151-0.151 0.151-0.395 0-0.546l-2.008-2.008 2.008-2.008c0.151-0.151 0.151-0.395-0-0.546z">
            </path>
            <path
                d="M7.095 19.099c-0.151-0.151-0.395-0.151-0.546 0l-2.008 2.008-2.008-2.008c-0.151-0.151-0.395-0.151-0.546 0s-0.151 0.395 0 0.546l2.008 2.008-2.008 2.008c-0.151 0.151-0.151 0.395 0 0.546 0.075 0.075 0.174 0.113 0.273 0.113s0.198-0.038 0.273-0.113l2.008-2.008 2.008 2.008c0.075 0.075 0.174 0.113 0.273 0.113s0.198-0.038 0.273-0.113c0.151-0.151 0.151-0.395 0-0.546l-2.008-2.008 2.008-2.008c0.151-0.151 0.151-0.395-0-0.546z">
            </path>
            <path
                d="M9.728 9.047c0.075 0.075 0.174 0.113 0.273 0.113s0.198-0.038 0.273-0.113l2.008-2.008 2.008 2.008c0.075 0.075 0.174 0.113 0.273 0.113s0.198-0.038 0.273-0.113c0.151-0.151 0.151-0.395 0-0.546l-2.008-2.008 2.008-2.008c0.151-0.151 0.151-0.395 0-0.546s-0.395-0.151-0.546 0l-2.008 2.008-2.008-2.008c-0.151-0.151-0.395-0.151-0.546 0s-0.151 0.395 0 0.546l2.008 2.008-2.008 2.008c-0.151 0.151-0.151 0.395-0 0.546z">
            </path>
            <path
                d="M17.47 9.047c0.075 0.075 0.174 0.113 0.273 0.113s0.198-0.038 0.273-0.113l2.008-2.008 2.008 2.008c0.075 0.075 0.174 0.113 0.273 0.113s0.198-0.038 0.273-0.113c0.151-0.151 0.151-0.395 0-0.546l-2.008-2.008 2.008-2.008c0.151-0.151 0.151-0.395 0-0.546s-0.395-0.151-0.546 0l-2.008 2.008-2.008-2.008c-0.151-0.151-0.395-0.151-0.546 0s-0.151 0.395 0 0.546l2.008 2.008-2.008 2.008c-0.151 0.151-0.151 0.395-0 0.546z">
            </path>
            <path
                d="M9.728 16.627c0.075 0.075 0.174 0.113 0.273 0.113s0.198-0.038 0.273-0.113l2.008-2.008 2.008 2.008c0.075 0.075 0.174 0.113 0.273 0.113s0.198-0.038 0.273-0.113c0.151-0.151 0.151-0.395 0-0.546l-2.008-2.008 2.008-2.008c0.151-0.151 0.151-0.395 0-0.546s-0.395-0.151-0.546 0l-2.008 2.008-2.008-2.008c-0.151-0.151-0.395-0.151-0.546 0s-0.151 0.395 0 0.546l2.008 2.008-2.008 2.008c-0.151 0.151-0.151 0.395-0 0.546z">
            </path>
            <path
                d="M28.126 6.684c-0.141-0.141-0.367-0.151-0.521-0.023l-16.212 13.556-1.119-1.119c-0.151-0.151-0.395-0.151-0.546 0s-0.151 0.395 0 0.546l1.070 1.070-0.356 0.298c-0.512 0.428-0.822 1.055-0.852 1.721s0.224 1.319 0.696 1.791c0.447 0.447 1.056 0.698 1.685 0.698 0.035 0 0.070-0.001 0.105-0.002 0.666-0.030 1.294-0.34 1.721-0.852l0.298-0.357 0.802 0.802c0.462 0.462 1.069 0.693 1.676 0.693s1.214-0.231 1.676-0.693l2.027-2.027c0.302-0.302 0.703-0.468 1.13-0.468s0.828 0.166 1.13 0.468l0.578 0.578c0.151 0.151 0.395 0.151 0.546 0s0.151-0.395 0-0.546l-0.578-0.578c-0.924-0.924-2.428-0.924-3.352 0l-2.027 2.027c-0.623 0.623-1.637 0.623-2.26 0l-0.851-0.851 2.49-2.978c0.137-0.164 0.115-0.407-0.048-0.544s-0.407-0.115-0.544 0.049l-2.446 2.925-0.778-0.778 0.334-0.334c0.151-0.151 0.151-0.395 0-0.546s-0.395-0.151-0.546 0l-1.21 1.21c-0.151 0.151-0.151 0.395 0 0.546 0.075 0.075 0.174 0.113 0.273 0.113s0.198-0.038 0.273-0.113l0.329-0.329 0.827 0.827-0.342 0.409c-0.293 0.351-0.706 0.555-1.163 0.575-0.456 0.020-0.887-0.147-1.21-0.47s-0.49-0.753-0.47-1.21c0.020-0.457 0.225-0.87 0.576-1.163l13.843-11.575-7.13 8.527c-0.137 0.164-0.115 0.407 0.049 0.544s0.407 0.115 0.544-0.049l9.907-11.848c0.128-0.153 0.118-0.379-0.023-0.521z">
            </path>
            <path
                d="M24.938 24.096c-0.151-0.151-0.395-0.151-0.546 0s-0.151 0.395 0 0.546l3.057 3.057c0.075 0.075 0.174 0.113 0.273 0.113s0.198-0.038 0.273-0.113c0.151-0.151 0.151-0.395 0-0.546l-3.058-3.057z">
            </path>
        </symbol>
        <symbol id="icon-burger" viewBox="0 0 48 32">
            <path d="M0 5.333v-5.333h48v5.333h-48zM0 18.667h48v-5.333h-48v5.333zM0 32h48v-5.333h-48v5.333z"></path>
        </symbol>
        <symbol id="icon-close" viewBox="0 0 32 32">
            <path
                d="M26.667 7.303l-1.97-1.97-7.808 7.808-7.808-7.808-1.97 1.97 7.808 7.808-7.808 7.808 1.97 1.97 7.808-7.808 7.808 7.808 1.97-1.97-7.808-7.808 7.808-7.808z">
            </path>
        </symbol>
    </defs>
</svg>